<svg viewBox="0 0 1920 1920" xmlns="http://www.w3.org/2000/svg"><path d="m960 15 266.667 241.92 359.893-13.867 48.747 356.907 284.693 220.587-192 304.64 76.267 352.106-342.934 109.867-167.893 318.613-333.44-136.213-333.44 136.213-167.893-318.613-342.934-109.867 76.267-352.106-192-304.64 284.693-220.587 48.747-356.907 359.893 13.867zm0 144-195.093 176.96-32.214 29.227-43.52-1.6-263.253-10.134-35.627 260.907-5.866 43.2-34.454 26.56-208.106 161.387 140.373 222.933 23.253 36.693-9.28 42.667-55.68 257.387 250.774 80.426 41.493 13.334 20.373 38.506 122.667 232.96 243.84-99.52 40.32-16.533 40.32 16.533 243.84 99.52 122.773-232.96 20.267-38.506 41.493-13.334 250.774-80.426-55.68-257.387-9.28-42.667 23.253-36.693 140.48-222.933-208.213-161.387-34.454-26.56-5.866-43.2-35.734-260.907-263.04 10.134-43.626 1.6-32.214-29.227zm341.056 613.483 64.533 85.013-561.6 426.24-255.04-255.04 75.414-75.413 189.226 189.226z" fill-rule="evenodd" fill="#ffffff"/></svg>