<svg height="24" viewBox="0 0 24 24" width="24" xmlns="http://www.w3.org/2000/svg"><path d="m4 3h1c1.05381818 0 1.9181157.81639669 1.99451089 1.85080841l.00548911.14919159v14c0 1.0538182-.81639669 1.9181157-1.85080841 1.9945109l-.14919159.0054891h-1c-1.05381818 0-1.9181157-.8163967-1.99451089-1.8508084l-.00548911-.1491916v-14c0-1.05381818.81639669-1.9181157 1.85080841-1.99451089l.14919159-.00548911h1zm6 0h1c1.0538182 0 1.9181157.81639669 1.9945109 1.85080841l.0054891.14919159v14c0 1.0538182-.8163967 1.9181157-1.8508084 1.9945109l-.1491916.0054891h-1c-1.05381818 0-1.9181157-.8163967-1.99451089-1.8508084l-.00548911-.1491916v-14c0-1.05381818.81639669-1.9181157 1.85080841-1.99451089l.14919159-.00548911h1zm6.9743 2.0005c.8395294 0 1.6081938.53060208 1.8899735 1.34586281l.0470265.15613719 3.015 11.746c.2625 1.0204091-.3132645 2.0608636-1.2967717 2.3916511l-.1432283.0423489-.969.249c-.166.042-.334.063-.498.063-.8385882 0-1.608083-.5314879-1.8891301-1.3468528l-.0468699-.1561472-3.016-11.745c-.2615455-1.02136364.3133512-2.06095041 1.2976474-2.39165702l.1433526-.04234298.968-.249c.166-.043.334-.063.498-.063zm-11.9743-.5005h-1c-.24533333 0-.44958025.17777778-.49193964.41042524l-.00806036.08957476v14c0 .2444444.17698765.4493827.41016187.4919067l.08983813.0080933h1c.24533333 0 .44958025-.1777778.49193964-.4104252l.00806036-.0895748v-14c0-.24444444-.17698765-.44938272-.41016187-.49190672zm6 0h-1c-.24533333 0-.44958025.17777778-.49193964.41042524l-.00806036.08957476v14c0 .2444444.17698765.4493827.41016187.4919067l.08983813.0080933h1c.2453333 0 .4495802-.1777778.4919396-.4104252l.0080604-.0895748v-14c0-.24444444-.1769877-.44938272-.4101619-.49190672zm5.9753 2.0005-.063375.003875-.062625.012125-.968.248c-.175.045-.267.163-.307.231-.0312.0528-.07584.15168-.069408.27872l.015408.10028 3.016 11.744c.066.258.297.376.483.376l.0625-.003875.0625-.012125.969-.249c.2382222-.0604444.3919012-.2836543.3746502-.5193306l-.0146502-.0886694-3.015-11.746c-.067-.257-.297-.375-.483-.375z" fill="#ffffff"/></svg>