<svg fill="none" height="32" viewBox="0 0 32 32" width="32" xmlns="http://www.w3.org/2000/svg"><g fill="#212121"><path d="m25.5 23.05h-19c-.28 0-.5.22-.5.5s.22.5.5.5h19c.28 0 .5-.22.5-.5 0-.27-.22-.5-.5-.5z" fill="#ffffff"/><path d="m6.5 26.05h19c.28 0 .5.23.5.5 0 .28-.22.5-.5.5h-19c-.28 0-.5-.22-.5-.5s.22-.5.5-.5z" fill="#ffffff"/><path d="m5.12 9.06h4.88v-1.6c0-1.36 1.1-2.46 2.47-2.46h7.07c1.36 0 2.46 1.1 2.46 2.46v1.6h4.87c2.2844 0 4.12 1.8498 4.12 4.12v15.3148c.013 1.4149-1.1465 2.5552-2.55 2.5552h-24.88c-1.41228 0-2.56-1.1477-2.56-2.56v-15.31c0-2.2844 1.8498-4.12 4.12-4.12zm14.63-1.6c0-.11-.09-.21-.21-.21h-7.08c-.11 0-.21.09-.21.21v1.6h7.5zm-14.63 3.6c-1.1698 0-2.12.9444-2.12 2.12v3.87h4v-.37c0-.35.28-.62.62-.62h2.75c.35 0 .62.28.62.62v.37h10.01v-.37c0-.35.28-.62.62-.62h2.75c.35 0 .62.28.62.62v.37h4v-3.87c0-1.1698-.9444-2.12-2.12-2.12zm15.8801 6.99h-10.01c-.001 1.0909-.8968 1.98-1.9901 1.98-1.09338 0-1.98917-.8793-1.9999-1.98h-4.0001v10.44c0 .3077.25228.56.56.56h24.88c.3143 0 .5534-.2562.5501-.5382l-.0001-.0118v-10.45h-3.9999c-.001 1.0909-.8968 1.98-1.9901 1.98-1.0934 0-1.9892-.8793-1.9999-1.98z" fill="#ffffff"/></g></svg>